<?xml version="1.0" encoding="UTF-8" standalone="no"?>
<!DOCTYPE svg PUBLIC "-//W3C//DTD SVG 1.1//EN"
 "http://www.w3.org/Graphics/SVG/1.1/DTD/svg11.dtd">
<!-- Generated by graphviz version 12.1.2 (20240928.0832)
 -->
<!-- Title: Amazon DynamoDB (ap&#45;northeast&#45;1) Pages: 1 -->
<svg width="298pt" height="192pt"
 viewBox="0.00 0.00 297.55 191.60" xmlns="http://www.w3.org/2000/svg" xmlns:xlink="http://www.w3.org/1999/xlink">
<g id="graph0" class="graph" transform="scale(1 1) rotate(0) translate(4 187.6)">
<title>Amazon DynamoDB (ap&#45;northeast&#45;1)</title>
<polygon fill="white" stroke="none" points="-4,4 -4,-187.6 293.55,-187.6 293.55,4 -4,4"/>
<!-- gakushu -->
<g id="node1" class="node">
<title>gakushu</title>
<polygon fill="#efefef" stroke="none" points="43.2,-104.8 43.2,-140.4 246.35,-140.4 246.35,-104.8 43.2,-104.8"/>
<polygon fill="none" stroke="black" points="43.2,-104.8 43.2,-140.4 246.35,-140.4 246.35,-104.8 43.2,-104.8"/>
<text text-anchor="start" x="50.2" y="-118.2" font-family="Arial Bold" font-size="18.00">gakushu</text>
<text text-anchor="start" x="110.19" y="-118.2" font-family="Arial" font-size="14.00">    </text>
<text text-anchor="start" x="141.31" y="-118.2" font-family="Arial" font-size="14.00" fill="#666666">[BASIC TABLE]</text>
<polygon fill="none" stroke="black" points="43.2,-74 43.2,-104.8 246.35,-104.8 246.35,-74 43.2,-74"/>
<text text-anchor="start" x="50.2" y="-86.2" font-family="Arial" font-size="14.00">pk </text>
<text text-anchor="start" x="68.88" y="-86.2" font-family="Arial" font-size="14.00" fill="#666666">[S]</text>
<polygon fill="none" stroke="black" points="43.2,-43.2 43.2,-74 246.35,-74 246.35,-43.2 43.2,-43.2"/>
<text text-anchor="start" x="50.2" y="-55.4" font-family="Arial" font-size="14.00">sk </text>
<text text-anchor="start" x="68.09" y="-55.4" font-family="Arial" font-size="14.00" fill="#666666">[S]</text>
</g>
</g>
</svg>
